<svg width="143" height="107" xmlns="http://www.w3.org/2000/svg" xmlns:xlink="http://www.w3.org/1999/xlink" xml:space="preserve" overflow="hidden">
    <g transform="translate(-395 -319)">
        <path d="M452.5 333.5 533.745 333.5" stroke="#000000" stroke-width="6.875" stroke-miterlimit="8" fill="none" fill-rule="evenodd"/>
        <path d="M426.5 334C426.5 327.096 432.32 321.5 439.5 321.5 446.68 321.5 452.5 327.096 452.5 334 452.5 340.904 446.68 346.5 439.5 346.5 432.32 346.5 426.5 340.904 426.5 334Z" stroke="#000000" stroke-width="6.875" stroke-miterlimit="8" fill="none" fill-rule="evenodd"/>
        <path d="M398.5 333.5 426.584 333.5" stroke="#000000" stroke-width="6.875" stroke-miterlimit="8" fill="none" fill-rule="evenodd"/>
        <path d="M479.745 372.5 398.5 372.5" stroke="#000000" stroke-width="6.875" stroke-miterlimit="8" fill="none" fill-rule="evenodd"/>
        <path d="M505.5 372.5C505.5 379.68 499.68 385.5 492.5 385.5 485.32 385.5 479.5 379.68 479.5 372.5 479.5 365.32 485.32 359.5 492.5 359.5 499.68 359.5 505.5 365.32 505.5 372.5Z" stroke="#000000" stroke-width="6.875" stroke-miterlimit="8" fill="none" fill-rule="evenodd"/>
        <path d="M533.584 372.5 505.5 372.5" stroke="#000000" stroke-width="6.875" stroke-miterlimit="8" fill="none" fill-rule="evenodd"/>
        <path d="M452.5 410.5 533.745 410.5" stroke="#000000" stroke-width="6.875" stroke-miterlimit="8" fill="none" fill-rule="evenodd"/>
        <path d="M426.5 411C426.5 404.096 432.32 398.5 439.5 398.5 446.68 398.5 452.5 404.096 452.5 411 452.5 417.904 446.68 423.5 439.5 423.5 432.32 423.5 426.5 417.904 426.5 411Z" stroke="#000000" stroke-width="6.875" stroke-miterlimit="8" fill="none" fill-rule="evenodd"/>
        <path d="M398.5 410.5 426.584 410.5" stroke="#000000" stroke-width="6.875" stroke-miterlimit="8" fill="none" fill-rule="evenodd"/>
    </g>
</svg>